<?xml version="1.0" encoding="utf-8"?>
<!-- Generator: Adobe Illustrator 24.3.0, SVG Export Plug-In . SVG Version: 6.00 Build 0)  -->
<svg version="1.1" id="master-artboard" xmlns="http://www.w3.org/2000/svg" xmlns:xlink="http://www.w3.org/1999/xlink" x="0px"
	 y="0px" viewBox="0 0 1304 257" style="enable-background:new 0 0 1304 257;" xml:space="preserve">
<style type="text/css">
	.st0{opacity:0.21;fill:#414042;enable-background:new    ;}
	.st1{fill:#EBCCA2;stroke:#E2CBB9;stroke-miterlimit:10;}
	.st2{fill:#FFFFFF;stroke:#000000;stroke-width:0.25;stroke-miterlimit:10;}
	.st3{opacity:0.12;fill:#414042;enable-background:new    ;}
	.st4{fill:none;}
	.st5{fill:#EBCCA2;stroke:#000000;stroke-width:0.25;stroke-miterlimit:10;}
	.st6{font-family:'CopperplateGothic-Bold';}
	.st7{font-size:90px;}
</style>
<path class="st0" d="M201.8,236.5H63c-18.5,0-33.8-15.1-33.8-33.8V64c0-18.5,15.1-33.8,33.8-33.8h138.8c18.5,0,33.8,15.1,33.8,33.8
	v138.8C235.5,221.3,220.3,236.5,201.8,236.5z"/>
<path class="st1" d="M194.6,229.3H55.8c-18.5,0-33.8-15.1-33.8-33.8V56.7C22,38.2,37.1,23,55.8,23h138.8c18.5,0,33.8,15.1,33.8,33.8
	v138.8C228.3,214.2,213.1,229.3,194.6,229.3z"/>
<path class="st0" d="M51.3,141.3c-2.9,1.9-6.4-4.1-6.4-4.1c2.1,9.5,7,14.7,13.4,17c0.9,2.5,1.9,4.8,2.9,7.1
	c-0.9,1.2-1.5,2.4-2.4,3.3c-2.2,2.6-7.3-2-7.3-2c4.8,8.4,11,12,17.9,12.3c1.5,2.1,3.2,4,4.9,6c-0.5,1.4-0.8,2.7-1.3,3.9
	c-1.4,3.2-7.6,0.2-7.6,0.2c7,6.6,14.1,8.3,20.7,6.5c2.1,1.5,4.3,2.9,6.4,4.3c-0.1,1.5,0.1,2.9-0.1,4.1c-0.4,3.4-7.2,2.4-7.2,2.4
	c8.7,4.3,15.8,3.7,21.6,0.2c2.4,0.9,4.9,1.5,7.4,2.2c0.4,1.4,0.9,2.7,1.1,3.9c0.6,3.4-6.2,4.4-6.2,4.4c9.6,1.5,16.2-1.1,20.8-6.3
	c0.9,0,1.8,0.1,2.7,0.1c1.7,0,3.3-0.1,4.9-0.2c0.8,1.2,1.6,2.3,2.2,3.5c1.6,3.1-4.6,6-4.6,6c9.6-1.3,15.2-5.8,18-12.1
	c2.5-0.7,4.9-1.5,7.3-2.4c1.1,1,2.2,1.7,3.1,2.6c2.4,2.5-2.6,7.1-2.6,7.1c8.8-4.1,12.8-10,13.7-16.8c2.2-1.4,4.3-2.9,6.3-4.4
	c1.3,0.6,2.6,1,3.8,1.6c3,1.6-0.4,7.6-0.4,7.6c7.2-6.5,9.4-13.4,8.1-20.1c1.7-1.9,3.2-3.9,4.7-6.1c1.5,0.2,2.9,0.2,4.1,0.4
	c3.4,0.7,1.9,7.3,1.9,7.3c4.9-8.3,4.9-15.5,1.9-21.6c1-2.3,1.9-4.8,2.7-7.2c1.5-0.2,2.8-0.7,4-0.8c3.4-0.4,3.9,6.5,3.9,6.5
	c2.3-9.4,0.2-16.3-4.6-21.2c0.3-2.6,0.5-5.1,0.5-7.7c1.3-0.7,2.5-1.5,3.6-1.9c3.2-1.3,5.6,5,5.6,5c-0.5-9.7-4.6-15.6-10.6-18.9
	c-0.5-2.6-1.1-5-1.8-7.5c1.1-1,1.9-2.1,2.9-2.9c2.6-2.2,6.9,3.2,6.9,3.2c-3.4-9.1-9-13.6-15.7-14.9c-1.2-2.3-2.6-4.5-3.9-6.6
	c0.7-1.3,1.2-2.6,1.9-3.6c1.9-2.9,7.5,1,7.5,1c-6-7.7-12.6-10.4-19.4-9.7c-1.8-1.9-3.7-3.6-5.7-5.2c0.3-1.5,0.4-2.8,0.8-4
	c0.9-3.3,7.5-1.3,7.5-1.3c-8-5.6-15.1-6.2-21.4-3.6c-2.2-1.2-4.6-2.3-7-3.3c-0.2-1.5-0.5-2.8-0.5-4c-0.1-3.5,6.7-3.4,6.7-3.4
	c-9.2-3-16.2-1.5-21.5,2.9c-2.5-0.5-5-0.9-7.7-1.1c-0.5-1.4-1.2-2.6-1.6-3.7C137.5,42,144,40,144,40c-9.7-0.2-15.9,3.3-19.7,9.1
	c-3,0.3-5.9,0.8-8.8,1.5c-0.9-1.1-2-2-2.7-3c-2-2.8,3.6-6.6,3.6-6.6c-9.3,2.8-14.1,8.1-15.9,14.7c-2.4,1.1-4.6,2.2-6.9,3.5
	c-1.2-0.8-2.5-1.4-3.5-2.1c-2.8-2.1,1.5-7.4,1.5-7.4c-8,5.4-11.1,11.9-10.9,18.8c-1.9,1.7-3.8,3.5-5.6,5.3c-1.4-0.4-2.8-0.5-3.9-1
	c-3.2-1.2-0.8-7.5-0.8-7.5c-6.1,7.6-7.1,14.6-4.9,21.1c-1.3,2.2-2.6,4.4-3.7,6.7c-1.5,0.1-2.9,0.2-4.1,0.2c-3.5-0.2-3-7-3-7
	c-3.6,9-2.5,16.1,1.5,21.6c-0.6,2.5-1.2,5-1.5,7.6c-1.4,0.5-2.6,1.1-3.9,1.4c-3.3,0.9-4.9-5.8-4.9-5.8c-0.8,9.7,2.3,16.1,7.9,20.2
	c0.1,2.6,0.4,5.2,0.7,7.7C53.4,139.7,52.4,140.6,51.3,141.3z M121.7,127.7c0-6.2,5-11.1,11.1-11.1c6.2,0,11.1,5,11.1,11.1
	c0,6.1-5,11.1-11.1,11.1C126.7,138.8,121.7,133.8,121.7,127.7z"/>
<path class="st2" d="M46.3,137.4c-2.9,1.9-6.4-4.1-6.4-4.1c2.1,9.5,7,14.7,13.4,17c0.9,2.5,1.9,4.8,2.9,7.1
	c-0.9,1.2-1.5,2.4-2.4,3.3c-2.2,2.6-7.3-2-7.3-2c4.8,8.4,11,12,17.9,12.3c1.5,2.1,3.2,4,4.9,6c-0.5,1.4-0.8,2.7-1.3,3.9
	c-1.4,3.2-7.6,0.2-7.6,0.2c7,6.6,14.1,8.3,20.7,6.5c2.1,1.5,4.3,2.9,6.4,4.3c-0.1,1.5,0.1,2.9-0.1,4.1c-0.4,3.4-7.2,2.4-7.2,2.4
	c8.7,4.3,15.8,3.7,21.6,0.2c2.4,0.9,4.9,1.5,7.4,2.2c0.4,1.4,0.9,2.7,1.1,3.9c0.6,3.4-6.2,4.4-6.2,4.4c9.6,1.5,16.2-1.1,20.8-6.3
	c0.9,0,1.8,0.1,2.7,0.1c1.7,0,3.3-0.1,4.9-0.2c0.8,1.2,1.6,2.3,2.2,3.5c1.6,3.1-4.6,6-4.6,6c9.6-1.3,15.2-5.8,18-12.1
	c2.5-0.7,4.9-1.5,7.3-2.4c1.1,1,2.2,1.7,3.1,2.6c2.4,2.5-2.6,7.1-2.6,7.1c8.8-4.1,12.8-10,13.7-16.8c2.2-1.4,4.3-2.9,6.3-4.4
	c1.3,0.6,2.6,1,3.8,1.6c3,1.6-0.4,7.6-0.4,7.6c7.2-6.5,9.4-13.4,8.1-20.1c1.7-1.9,3.2-3.9,4.7-6.1c1.5,0.2,2.9,0.2,4.1,0.4
	c3.4,0.7,1.9,7.3,1.9,7.3c4.9-8.3,4.9-15.5,1.9-21.6c1-2.3,1.9-4.8,2.7-7.2c1.5-0.2,2.8-0.7,4-0.8c3.4-0.4,3.9,6.5,3.9,6.5
	c2.3-9.4,0.2-16.3-4.6-21.2c0.3-2.6,0.5-5.1,0.5-7.7c1.3-0.7,2.5-1.5,3.6-1.9c3.2-1.3,5.6,5,5.6,5c-0.5-9.7-4.6-15.6-10.6-18.9
	c-0.5-2.6-1.1-5-1.8-7.5c1.1-1,1.9-2.1,2.9-2.9c2.6-2.2,6.9,3.2,6.9,3.2c-3.4-9.1-9-13.6-15.7-14.9c-1.2-2.3-2.6-4.5-3.9-6.6
	c0.7-1.3,1.2-2.6,1.9-3.6c1.9-2.9,7.5,1,7.5,1c-6-7.7-12.6-10.4-19.4-9.7c-1.8-1.9-3.7-3.6-5.7-5.2c0.3-1.5,0.4-2.8,0.8-4
	c0.9-3.3,7.5-1.3,7.5-1.3c-8-5.6-15.1-6.2-21.4-3.6c-2.2-1.2-4.6-2.3-7-3.3c-0.2-1.5-0.5-2.8-0.5-4c-0.1-3.5,6.7-3.4,6.7-3.4
	c-9.2-3-16.2-1.5-21.5,2.9c-2.5-0.5-5-0.9-7.7-1.1c-0.5-1.4-1.2-2.6-1.6-3.7c-1.1-3.2,5.5-5.3,5.5-5.3c-9.7-0.2-15.9,3.3-19.7,9.1
	c-3,0.3-5.9,0.8-8.8,1.5c-0.9-1.1-2-2-2.7-3c-2-2.8,3.6-6.6,3.6-6.6c-9.3,2.8-14.1,8.1-15.9,14.7c-2.4,1.1-4.6,2.2-6.9,3.5
	c-1.2-0.8-2.5-1.4-3.5-2.1c-2.8-2.1,1.5-7.4,1.5-7.4c-8,5.4-11.1,11.9-10.9,18.8c-1.9,1.7-3.8,3.5-5.6,5.3c-1.4-0.4-2.8-0.5-3.9-1
	c-3.2-1.2-0.8-7.5-0.8-7.5c-6.1,7.6-7.1,14.6-4.9,21.1c-1.3,2.2-2.6,4.4-3.7,6.7c-1.5,0.1-2.9,0.2-4.1,0.2c-3.5-0.2-3-7-3-7
	c-3.6,9-2.5,16.1,1.5,21.6c-0.6,2.5-1.2,5-1.5,7.6c-1.4,0.5-2.6,1.1-3.9,1.4c-3.3,0.9-4.9-5.8-4.9-5.8c-0.8,9.7,2.3,16.1,7.9,20.2
	c0.1,2.6,0.4,5.2,0.7,7.7C48.4,135.8,47.3,136.7,46.3,137.4z M116.7,123.8c0-6.2,5-11.1,11.1-11.1c6.2,0,11.1,5,11.1,11.1
	s-5,11.1-11.1,11.1C121.7,134.9,116.7,129.9,116.7,123.8z"/>
<path class="st3" d="M194.6,23h-69.4v206.3h69.4c18.5,0,33.8-15.1,33.8-33.8V56.7C228.3,38.2,213.1,23,194.6,23z"/>
<rect x="289.1" y="111.6" class="st4" width="1104.9" height="49.4"/>
<text transform="matrix(1 0 0 1 289.1366 160.7987)" class="st5 st6 st7">Rustic Renovations</text>
<rect x="1215.1" y="210.8" class="st4" width="357.7" height="5.5"/>
</svg>
